<?xml version="1.0" encoding="utf-8"?>
<!-- Svg Vector Icons : http://www.onlinewebfonts.com/icon -->
<!DOCTYPE svg PUBLIC "-//W3C//DTD SVG 1.1//EN" "http://www.w3.org/Graphics/SVG/1.1/DTD/svg11.dtd">
<svg version="1.1" xmlns="http://www.w3.org/2000/svg" xmlns:xlink="http://www.w3.org/1999/xlink" x="0px" y="0px" viewBox="0 0 1000 1000" enable-background="new 0 0 1000 1000" xml:space="preserve" fill="#fff">
<metadata> Svg Vector Icons : http://www.onlinewebfonts.com/icon </metadata>
<g><path d="M215.1,576.7c-29.2,12.6-56.4,30.9-30.2,42.2c17.2,7.4,40.8,15.5,59,28.9c2-50,23.4-97,44-131.3l-41.7-33.2c0,0-30.2-10.4-25.3,22C225.8,537.8,244.3,564.1,215.1,576.7z"/><path d="M613.6,893.2c-0.7,3.4-0.6,7-0.8,10.3c-2.6-2.2-5.8-5-10.4-8.9c-4.3,6.7-7.8,12.3-11.3,17.9c0.4,1.6,0.9,3.2,1.3,4.8c8.8-0.5,17.8-0.1,26.1-2.2c2.2-0.6,2.9-9.1,3.1-14c0.1-3-1.8-6.2-3.2-9.1C618.2,891.5,613.8,892.4,613.6,893.2z"/><path d="M614.7,861.3c7.1-4.1,13.2-9.7,19.7-14.9c-3.3-2.9-6.6-5.8-7.5-6.6c-13.3-0.4-21.3,2.3-21.4,12.9C605.5,855.7,613.5,862,614.7,861.3z"/><path d="M726.3,955.6c0,0,2.1,1.9,4,5c1.8,3.1,3.6,7.2,4.1,11.6c0.3,2.2,0.3,4.5,0.1,6.7c34.4-8.6,69.8-38.7,87.6-118.2c0,0,2.9-15.7,3.6-39.7c-9.2,3.4-19.7,4.7-29.8,4.8c-13.7,0.2-26.9-1.8-36.6-3.8c-9.7-2-15.9-4-15.9-4s26.6,2.3,51.1-3.8c12.2-2.8,23.5-8.1,28.4-13.3c1.2-1.3,2.1-2.4,2.5-3.4c0.1-0.2,0.1-0.2,0.1-0.3c-0.5-12.9-1.8-26.9-4.3-41.6c-8.1,2.3-16.8,3.4-25.3,3.5c-13.7,0.2-26.9-1.8-36.5-3.8c-9.7-2-15.9-4-15.9-4s26.6,2.3,51.1-3.8c8.9-2.1,17.4-5.4,23.2-9.2c-6.3-26.6-17-54.2-35-79.1c-7.5-10.4-12.5-31.3-17.5-46.6C722.2,565.3,656,476,667.5,388c1.6-12.4,3.5-24.7,5.3-37.1c3.3-22,6.8-44.8,8.6-67.2c3.2-39.5-6.3-63.9-27.4-100.7l-1.5-2.6c-8.6-15-19.4-33.9-23.6-53.1c-1.1,1.3-2.3,2.7-3.4,4c-5.6,5.8-11.8,10.7-16.7,14c-5,3.1-8.3,5.2-8.3,5.2s2.8-2.6,7.1-6.6c4.1-4.1,9.1-9.9,13.2-16.2c1.8-3.2,3.9-6.4,4.9-9.5c0.7-1.4,1-2.7,1.3-4c-0.1-1.4,0.1-2.8,0.2-4.2c-14.8-21.1-31.5-45.3-40.1-58.9C578,36.5,564,10,539,10c-22.8,0-54.8,22-100.7,95c0,0-0.8,0.1-1.7,0.3c1.7,1.4,3.5,2.9,5.1,4.6c4.6,4.6,8.6,10.2,12.4,15.8c3.5,5.8,6.8,11.7,9.2,17.6c2.6,5.8,4.2,11.5,5.8,16.3c2.8,9.7,3.3,16.5,3.3,16.5s-1.1-1.3-2.7-3.8c-1.5-2.5-4.1-5.9-6.6-10.1c-5.1-8.2-12-19.2-18.9-30.2c-6-9.2-11.9-18.3-17.7-24.7c-8.1,1.7-19.2,4.5-30.7,8.6c0.5,0.8,1,1.6,1.5,2.5c4.5,7.9,9.9,18.6,14.1,29.8c4.3,11.1,7.4,22.7,9.3,31.6c1.9,8.9,2.2,15.1,2.2,15.1s-3.9-4.9-8.4-12.8c-4.5-7.9-9.9-18.6-14.1-29.8c-4.3-11.1-7.4-22.7-9.3-31.6c-0.2-1-0.4-1.9-0.5-2.9c-7.9,3.1-15.5,6.9-21.9,11.4c-0.1,8.7,1.6,19.5,3.2,30.3c2.2,12.8,4.3,25.5,6,35.1c0.9,4.8,1.2,9.1,1.8,11.9c0.4,2.9,0.5,4.6,0.5,4.6s-4.2-5.4-8.5-14.6c-2-4.6-4.6-9.9-6.5-16c-2.1-6-3.5-12.6-4.8-19.3c-0.9-6.7-1.7-13.5-1.3-20c0.1-4.3,0.8-8.3,1.8-12.1c-12-2.2-40.6-6.8-70.3-6.8c-48.3,0-99,12.3-82.8,67.2c22.3,75.8,36,95.4,42,114.1c1.4,0.5,3,0.9,4.9,1.1c3.2,0.7,7,0.5,10.7,0.5c7.5-0.4,15-2,20.6-3.5c5.6-1.7,9.2-2.9,9.2-2.9s-3.5,1.8-8.6,4.6c-5.3,2.5-12.6,5.6-20.4,7.6c-4,0.7-8,1.7-12,1.7c-0.8,0.1-1.5,0-2.2,0c0.5,3,0.9,6.1,1,9.7c1.5,30.6,14.6,116.7,83.1,147.3c0,0-19.5,21-39.3,53.9c-21.2,35-42.7,83.5-41.7,134.3c0.7,36.7,13.3,74.6,46.3,109.6c-0.3-0.5-0.6-0.8-0.6-0.8s1.5,0.7,4.2,1.9c6.5,3,12.9,5.4,19.4,7.3c-0.3-1.1-0.6-2.3-0.8-3.3c-0.8-3.2-1.2-5.4-1.2-5.4c-0.1-0.6,0.2-1,0.7-0.9c0.2,0,0.3,0.1,0.5,0.2c0,0,1.8,1.3,4.3,3.5c1.3,1,2.7,2.3,4.2,3.7c1.8,1.8,3.1,3.2,3.9,4.9c4.1,0.7,8.4,1,12.8,1c-0.1-0.5-0.3-0.9-0.4-1.5c-0.6-1.9-1-3.8-1.4-5.4c-0.8-3.2-1.2-5.4-1.2-5.4c-0.1-0.6,0.2-1,0.7-0.9c0.2,0,0.3,0.1,0.5,0.2c0,0,1.8,1.3,4.3,3.5c1.3,1,2.7,2.3,4.2,3.7c2,1.9,3.3,3.5,4.2,5.4c4.4-0.5,8.8-1.2,12.8-2.8c2.3-0.9,4.6-1.7,6.8-2.4c4.5-1.3,7.9-4.1,10.6-5.1c2.6-1.3,4.2-1.9,4.2-1.9s-0.9,1.4-2.7,3.7c-12.1,15.8-32,23.9-51.8,20.7c-5.2-0.8-10.9-2.3-15.6-4.6c-5.4-2.6-9.9-6-14-9.8c-3.5,17.9-19.2,172.8,51.4,206.9c0.5-4.2,2.2-8.2,3.9-11.1c1.8-3.1,3.9-5,3.9-5s1.6,2.4,2.6,5.8c1,3.4,1.7,7.9,1.1,12.3c-0.1,0.8-0.4,1.5-0.5,2.3c3.8,1,7.9,1.8,12.1,2.2c0-1-0.1-2,0-3c0.4-4.4,2.2-8.6,4-11.6c1.8-3.1,3.9-5,3.9-5s1.6,2.4,2.6,5.8c1,3.4,1.7,7.9,1.1,12.3c-0.1,0.6-0.3,1.2-0.4,1.8c17.9-0.7,39.2-6.6,64.7-19.9c0,0,30,4.4,74,4.4c31.8,0,70.9-2.3,111.3-10.3c0,0,24.2,14.2,55.2,16.9c-0.4-1.5-0.9-2.9-1.1-4.4c-0.6-4.3,0-8.8,1-12.3c1-3.4,2.5-5.9,2.5-5.9s2.1,1.9,4,5c1.8,3.1,3.6,7.2,4.1,11.6c0.3,2.2,0.3,4.4,0.1,6.5c4.4,0,8.9-0.4,13.4-1c-0.9-2.2-1.6-4.5-1.9-7c-0.6-4.3,0-8.8,1-12.3C724.7,958,726.3,955.6,726.3,955.6z M658.2,703.8c0,10.8-8.8,19.5-19.6,19.5s-19.6-8.7-19.6-19.5s8.8-19.6,19.6-19.6C649.5,684.2,658.2,693,658.2,703.8z M584.9,776.8c18.7-6.1,37.3-12.9,56.3-18.1c8.6-2.4,14.3,3.3,15.8,11.9c1.6,9.6-5.9,17.3-18.9,18.4c2.3-6.8,4.1-12.3,6.7-19.8C623.4,771.6,605.8,785.9,584.9,776.8z M523.9,747.5c-5.3-1.2-10.9-1.4-16.4-2C497,762,479.8,770,465,754.3c23-0.9,32.6-15.5,36.3-35.9c1.2,0.3,2.3,0.6,3.5,0.9c2.3,4.6,4.5,9.2,7,14.1c32.4,1.6,38.2,4.6,39.3,21.5c1,14.9-9.5,27.8-25.1,30.7c-9.6,1.8-17.7-4.8-21.6-16.4c8-0.8,16.9-0.4,24.5-3.2c3.7-1.4,5-9,7.3-13.9C532.1,750.5,528.1,748.4,523.9,747.5z M497.6,844.6c-5.7-6.7-10-11.6-15.8-18.4C499,825.4,501.6,828.4,497.6,844.6z M547.7,718.1c-13.5,0.5-27.5,1.3-40.5-1.7c-8.7-2-16-10.3-25-16.5c24.2,0,44.7-0.5,65.1,0.5c4,0.2,7.6,6.5,11.4,10C554.9,713,551.4,717.9,547.7,718.1z M554.3,496.9c23.5,0,42.6,19.1,42.6,42.6c0,12.1-5.1,22.9-13.2,30.7c-0.9-0.5-1.8-0.9-2.7-1.5c-3.1-2-7-3.4-10.2-6.3c-6.9-5.2-11.6-12.7-15.4-18.1c-3.1-6.2-5.2-10.3-5.2-10.3c-0.1-0.2-0.4-0.4-0.6-0.3c-0.3,0.1-0.5,0.4-0.4,0.7c0,0,1,4.5,2.5,11.3c2.2,6.8,6.1,15.9,12.7,23.3c2.3,3.4,5.5,6.1,8.7,8.6c-5.7,2.8-11.9,4.5-18.6,4.5c-23.5,0-42.6-19.1-42.6-42.6C511.8,516,530.8,496.9,554.3,496.9z M546.7,683.2c-6.3-10.1,7.5-12.1,14.5-13.5c4.3-0.9,9.9-0.7,13.8-2.8c1.7-0.9,12.6-12.8,8.8-13.8c-10.2-2.8-21.3-2.5-31.4-5.3c-1.3-9.1,26.2-17.8,32.7-20.4c4.2-1.7,10.2,1,15.4,1.7c-1,5.1-1.5,10.5-3.1,15.4c-1.3,4-4,7.6-6.1,11.4c1.1,1,2.1,2.1,3.1,3.1c0.9,0.9,18.2-5.5,20.9-5.5c3.7,0,21,5.9,13.3,13.1c-2.9,2.7-7.7,4.4-11.9,4.7c-11.2,0.9-18.1,0.4-20.4,12.5c-3.2,17.6,2.4,31.8-5,49c-1.5-0.3-2.9-0.5-4.4-0.8c-1-16.9-2.1-33.8-3.1-50.9C584.2,685.1,551.9,691.4,546.7,683.2z M618.7,751.7c0.8,3.1-2.8,10.6-4.8,10.7c-11.5,0.7-15.7-7.1-18.2-18.7C606.6,741.6,615.7,739.9,618.7,751.7z M607.8,277c0.2,0,0.3,0,0.4,0.2c0,0.1,0,0.3-0.2,0.3c0,0-14.7,6.4-28.3,14.3c-7,3.8-13.4,8-18.8,10.6c-5.3,2.5-9.5,3.7-9.5,3.7c-0.1,0.1-0.3,0-0.4-0.1c0-0.1,0-0.2,0-0.3c0,0,2.6-3.1,7.3-7.1c2.4-1.9,5.1-4.2,8.5-6.1c3.2-2,7.1-3.2,10.8-4.8C592.3,281,607.8,277,607.8,277z M590.3,245.7c0.1-0.1,0.3,0,0.4,0.1c0.1,0.1,0,0.3-0.1,0.4c0,0-12.4,10.1-23.4,21.4c-5.7,5.5-10.8,11.3-15.2,15.2c-4.5,3.9-8.1,6.1-8.1,6.1c-0.1,0.1-0.3,0.1-0.4,0c-0.1-0.1-0.1-0.2,0-0.3c0,0,1.6-3.7,5.1-8.8c1.8-2.5,3.8-5.4,6.5-8.2c2.6-2.7,6-5,9.1-7.5C576.4,253.7,590.3,245.7,590.3,245.7z M514.1,250.6c0.1-2.4,1.7-4.3,2.6-6.5c2.2-4.4,6.4-7.8,10-11.4c4.2-2.9,8.2-6.1,12.7-7.6c2.2-0.8,4-2.1,6.3-2.3c2.1-0.4,4.1-0.7,6-1.1c3.6-0.7,6.4-0.1,8.5-0.2c2,0.1,3.2,0.1,3.2,0.1c0.3,0,0.6,0.3,0.6,0.6c0,0.3-0.2,0.5-0.5,0.6c0,0-1.1,0.3-3.1,0.7c-1.9,0.6-5,0.7-8,2.3c-3,1.5-6.4,2.7-9.7,5.3c-3.6,2-6.3,5.4-9.3,8.3c-2.2,3.7-4.6,7-5.9,10.6c-2.1,3.2-3.6,6.4-5.2,9.2c-1.9,2.7-2.4,5.4-3.7,7.3c-1,1.9-1.8,3-1.8,3c-0.2,0.3-0.5,0.5-0.9,0.3c-0.1-0.1-0.2-0.2-0.3-0.3c0,0-0.6-1.1-1.2-3.3c-0.5-2.1-1.6-5.4-1.2-9.2C513.5,254.9,513.8,252.8,514.1,250.6z M447.3,354.6c2.4-0.8,5.4-1.2,8.1-2.5c2.9-1.1,5.2-3,7.2-5.1c1.5-2.5,2.6-5,3-7.8c0.6-2.7,0.3-5.4,0.5-7.6c-0.1-1.7-0.2-3.1-0.3-4.3c-6.7-1.3-13.6-6.1-15.3-9.1c-2.5-4.4,6.9-3.2,14.9-7.8c8.1-4.6,11.8-13.3,14.3-8.9c1.9,3.3,2.5,12.7-0.4,19.3c1,0.9,1.9,1.9,3.1,2.7c2.3,1.7,4.8,2.7,7.7,3.4c2.8,0.1,5.9-0.2,8.7-1.5c2.8-1,5.3-2.8,7.5-3.9c4.1-3,6.9-5.1,6.9-5.1s-2.3,2.6-5.7,6.5c-2,1.7-4.1,4-7,5.8c-2.8,2-6.3,3.4-10.4,4c-4.1,0.1-8-0.6-11.4-2.2c-0.9-0.4-1.5-0.8-2.3-1.3c-0.1,0.9-0.3,1.9-0.4,2.9c-0.8,2.8-1.3,6.2-2.8,9.5c-1.3,3.5-3.6,6.8-6.5,9.6c-3.3,2.4-6.8,3.9-10.2,4.5c-3.3,0.8-6.4,0.6-9,0.8c-5.2-0.3-8.6-0.5-8.6-0.5S442.2,355.4,447.3,354.6z M436.2,487.5c6-1.2,12.4-2.5,19.3-3.8c6.7-2,13.7-3.9,21-5.7c7.3-1.8,14.8-3.5,22.4-4.9c7.6-1.6,15-4.5,22.6-6.5c7.6-2,15.2-4.1,22.7-6.1c7.2-2.8,14.3-5.2,21.4-7.5c7.1-2.2,14-4.2,20.2-7.1c6.2-2.7,12.5-4.8,18.2-6.9c10.7-5.2,20.7-8.7,27-12.1c6.8-3,10.7-5.1,10.7-5.1s-1.6,4-6,10.3c-4.2,6.7-11.5,14.5-20.9,23.8c-5,4.1-10.5,8.6-16.6,12.9c-6,4.7-12.6,9-19.9,12.5c-3.7,1.9-7.6,3.8-11.5,5.7c-4-0.9-8.2-1.6-12.5-1.6c-16.7,0-31.4,7.7-41.4,19.6c-2.3,0.5-4.6,1.2-7,1.5c-8.4,1.1-16.8,1.8-24.8,2.4c-8.1,0.6-15.8,1-23.1,1.2c-7.4-0.3-14.3-1.5-20.7-2.3c-25.6-3.4-41.9-8.9-41.9-8.9S412.2,492.3,436.2,487.5z M388.8,377.6c-5.3,2.5-12.7,4.8-20.1,7.9c-14.8,5.6-29,12.9-29,12.9c-0.1,0.1-0.3,0-0.4-0.1c-0.1-0.1,0-0.3,0.1-0.4c0,0,12.9-9.5,27.3-16.6c3.6-1.9,7-4.1,10.6-5.3c3.6-1.3,7.1-2,10.1-2.7c6-1.2,10.1-1.2,10.1-1.2c0.2,0,0.3,0.1,0.3,0.3c0,0.1-0.1,0.2-0.2,0.3C397.7,372.6,394.2,375.1,388.8,377.6z M333.1,317.7c1.3-1.6,2.5-4.3,5.2-6.7c1.4-1.3,2.8-2.7,4.4-4.1c1.5-1.7,3.6-2.4,5.6-3.7c3.9-2.7,8.8-4,13.6-5.7c5-0.8,10.2-2.1,15.1-1.3c2.4,0.6,4.8,0.5,6.8,1.8c2,1,3.8,2,5.5,3c3.3,2,5.3,4.8,6.7,6.5c1.4,1.8,2,2.9,2,2.9c0.2,0.3,0,0.7-0.3,0.9c-0.1,0.1-0.3,0.1-0.4,0.1c0,0-1.4-0.1-3.5-0.4c-2.2,0-4.7-1.3-8-1.4c-3.2-0.4-6.7-1.1-10.5-1.3c-3.7-1.1-7.7-1.2-12-1.6c-4.1,0.7-8.5,0.9-12.2,2.5c-4,1.1-7,3.1-10,4.6c-3,1.5-5,4-6.6,5.1c-1.6,1.3-2.4,2.1-2.4,2.1c-0.2,0.2-0.6,0.2-0.8-0.1c-0.2-0.2-0.2-0.5,0-0.7C331.2,320.3,331.9,319.4,333.1,317.7z M325.3,352c-0.2,0-0.3-0.1-0.3-0.3c0-0.1,0.1-0.3,0.2-0.3c0,0,15.5-4.2,31.5-5.5c4-0.4,8-1.2,11.8-1.1c3.8,0.1,7.3,0.7,10.4,1.2c6,1.1,9.8,2.6,9.8,2.6c0.2,0.1,0.2,0.2,0.2,0.4c0,0.1-0.2,0.2-0.3,0.2c0,0-4.2,1-10.1,1.5c-5.9,0.4-13.6-0.1-21.5,0C341.2,350.3,325.3,352,325.3,352z M420.9,916.1c-2.7-1.3-6.1-3.7-10.8-5.3c-2.3-0.8-4.7-1.8-7.3-2.7c-2.4-1.2-5.5-1.1-8.3-2c-5.6-1.7-11.9-1.6-18.1-2.2c-6.1,0.6-12.4,0.5-18.1,2.2c-2.8,0.8-5.9,0.8-8.2,2c-2.5,0.9-4.9,1.8-7.1,2.6c-4.6,1.6-8.3,4.2-11,5.5c-2.7,1.4-4.3,2.1-4.3,2.1s1-1.5,2.9-3.8c2.2-2.1,4.1-6.2,8.6-9c2.3-1.5,4.7-3.2,7.3-5c2.6-2.1,5.7-2.9,8.9-4.1c3.2-1,6.5-2.7,10.1-2.8c3.6-0.4,7.2-0.8,10.9-1.2c3.6,0.4,7.3,0.8,10.9,1.2c3.6,0.1,6.9,1.8,10.1,2.8c3.2,1.2,6.4,2.1,8.9,4.1c2.5,1.7,5,3.4,7.2,4.9c4.5,2.8,6.7,7.2,8.9,9.2c1.9,2.4,2.8,3.8,2.8,3.8S423.5,917.4,420.9,916.1z M381.4,735.2C274.9,672.5,342,552.9,342,552.9c27.7-51.1,55.4-21.9,116.7,56.9c4.6,5.9,8,11.7,10.8,17.4c-0.7,0.5-1.6,0.8-2,1.7c0,0-1.4,2.6-3.5,5.4c-2,3.1-5.3,6.9-9,10.6c-3.4,4.2-8,6.7-11.2,9.1c-3.3,2.4-5.5,3.9-5.5,3.9s2.5-0.9,6.3-2.3c3.7-1.5,9.3-2.9,13.9-6.1c4.9-2.7,9.6-5.8,12.9-8.8c1.3-1,2-1.7,2.8-2.4C494.7,702.6,409.5,748,381.4,735.2z M481.2,886.7c-4.2,3.4-11.9,3.1-18,3.2c-2.1,0-5.8-3.9-6-6.2c-0.2-2,3.2-5.3,5.7-6.4c5.4-2.4,11.4-3.4,16.9-5.7c5.4-2.3,10.5-5.6,15.8-8.4c0.9,0.8,1.8,1.7,2.8,2.5C492.7,872.9,488,881.2,481.2,886.7z M509.1,902.3c-1.4-0.1-2.8-0.1-4.3-0.2c0-6.8-0.2-13.7,0-20.5c0.2-6.9,0.8-13.9,1.3-21.4c-11.2-2.3-20.3-3.9-29.3-6.1c-3-0.7-5.6-2.8-12.1-6.2c11.8,0,19.9-1.1,27.5,0.2c12.1,2.1,16.3-2.6,15.5-14c-0.3-5.1-0.1-10.3-0.1-15.3c-8.1-4-16-7.9-24-11.8c0.3-0.9,0.6-1.9,0.9-2.8c5.7,0,11.7,1.1,17-0.3c4.5-1.3,8.2-5.4,11.9-8.1c2.7,2.8,5.5,6.7,9.3,9.1c3.6,2.2,8.1,2.7,12.3,4c0.1,1.4,0.1,2.8,0.2,4.2c-5.7,1.7-11.3,3.4-19.2,5.8c-0.5,8-1,17.5-1.5,27.5c16.4,3.1,32.6-7.2,49.4,3.9c-15.6,14.4-34.2,2.5-49,10.5C509.5,873.5,519.3,889.7,509.1,902.3z M542.3,831.2c-4.7,3.9-9.3,7.8-14,11.7c-2-1.7-4.1-3.5-6.1-5.2c3-5.2,6.1-10.4,9.1-15.6C535,825.2,538.6,828.2,542.3,831.2z M575.6,899.8c-6.8,1.3-15.6,2.3-20.9-1c-12.8-8-24-18.5-35.9-28.1c0.9-1.4,1.9-2.9,2.8-4.3c7.1,4,13.8,9.1,21.3,11.7c8.8,3,18.4,3.6,27.5,5.8c4.1,1,7.8,3.3,11.7,5C580,892.7,578.4,899.2,575.6,899.8z M631.4,911.1c-4.1,12.5-18.6,18.2-31.1,16.5c-6.7-0.9-13.8-2.7-16.6-8.9c-0.1-0.3-0.3-0.7-0.4-1c-8-23.3,20.1-28.1,34.4-29.5C630.8,887,635,900.1,631.4,911.1z M613.6,831.7c15.5-5.7,27.9-3.5,32.5,5.9c3.7,7.4-2.9,26-12.1,32.3c-10.4,7.1-21.8,9.7-32.9,2.2c-10.1-6.7-15.9-16.1-10.4-28.8c-8-0.9-14.8-1.7-21.9-2.5c13.1-9.8,24.4-17.9,35.2-26.7c1-0.8-1.4-5.7-1.7-6.9c5.2-3.5,9.9-6.7,14.6-9.9c-0.8-1.2-1.5-2.3-2.3-3.5c-8.6,0.5-15.5,2.4-19.5,12.6c-3.6,8.8-10.9,14.9-21.7,10.4c3.5-4.4,6.6-9,9.8-13.3c-14.9-4.9-17.7-12.5-11.3-29.8c4.5,11,7.9,19.2,11.9,29c3.6-4.8,7.3-9.2,11.8-12.4c7.2-5.1,18.1-5.4,27.6-6.5c1.3-0.1,5,7.7,4.9,11.7c-0.1,4.1-3.6,8.2-4.3,16.7c9.9-1.7,19.8-3.6,29.8-4.9c3.6-0.5,7.4,0.5,11.2,0.8c-1.3,3.2-1.8,7.3-4.2,9.4c-10.6,9.8-23.4,12.5-36.2,6.1c-10.9-5.4-15.1-1.2-19.7,9.7C609,832.5,611.4,832.5,613.6,831.7z M713.8,889.3c-3.5,1.2-6.9,2.4-10.3,3.6c-3.6,0.9-6.5,2.9-9.6,4.5c-2.9,1.8-6.5,2.8-8.7,4.9c-2.6,1.9-5,3.7-7.2,5.3c-4.7,3.2-7.9,7.5-10.5,9.7c-2.5,2.4-4.1,3.7-4.1,3.7s0.7-1.9,2.3-5.1c1.9-2.9,3-8,7.3-12.6c2.1-2.4,4.4-4.9,6.8-7.7c2.3-3,5.6-4.8,8.8-7.1c3.3-2.1,6.5-4.9,10.5-6.1c3.9-1.5,7.8-3,11.8-4.6c4.2-0.6,8.4-1.3,12.5-1.9c4.1-1,8.2-0.1,12.1,0.1c3.9,0.4,7.8,0.3,11.1,1.8c3.4,1.1,6.6,2.2,9.5,3.2c5.9,1.7,9.8,5.8,12.9,7.4c2.9,2,4.4,3.2,4.4,3.2s-2.1-0.4-5.4-1.2c-3.4-0.7-7.9-2.5-13.7-3.1c-2.8-0.3-5.9-0.7-9.1-1.1c-3.1-0.7-6.6,0.2-10.1,0.1C728.2,886.1,721.1,888.1,713.8,889.3z"/><path d="M367.2,618.9c0,8.9,7.2,16,16,16c8.9,0,16-7.2,16-16s-7.2-16-16-16C374.4,602.9,367.2,610,367.2,618.9z"/><path d="M793.6,305c3.6-1,7.2-1.8,10.2-3.3c3.2-1.1,5.4-3.1,7.2-4.3c0.4-0.7,0.7-1.1,1.2-1.4c0.2,0,0.3-0.3,0.5-0.6c0-1.4,0-2.9,0-4.3c-2.5-73-10.2-165.7-80.6-207.5c-11.7-6.9-29-11.8-45.7-11.8c-22.7,0-44,9.1-47.4,34.2c0,0.2,0,0.3,0,0.5c-0.4,3.3-0.3,6.7,0,10.1c0.4,4.7,1.4,9.4,2.9,14.2c5,16.7,14.9,33.5,22.3,46.5c1.2,2,2.2,3.9,3.3,5.9c5.9,10.5,10.9,20.4,14.9,30.1c6.6,16,10.4,32,11.1,50.6c0.2,6.6,0.2,13.4-0.4,20.9c-0.3,4.3-0.9,8.6-1.4,12.9c-3.3,30.8-8.6,61.3-12.7,92c-0.6,4.6-0.4,9.2-0.6,13.8c-0.1,1.8-0.2,3.6-0.2,5.4c0,60.7,35.1,122.3,73.9,170.8c4.1,5.1,8.2,10,12.3,14.8c3.7,4.3,7.3,8.4,10.9,12.4c0.5,0.5,1,1.1,1.5,1.7c-8.8-9.6-3.5-53-1.9-67.9c2.5-23.7,8.1-46.9,13.8-70c9.5-38,17.5-76.6,21.5-115.6c-1.3,0.4-2.5,0.9-3.9,1.2c-3.9,1.1-8,1.2-12,1.5c-8.1,0.2-15.9-0.8-21.7-1.9c-5.7-1.3-9.5-2.2-9.5-2.2s3.9,0.1,9.7,0.3c5.8,0,13.5-0.5,20.8-2.1c3.6-1,7.2-1.8,10.2-3.3c3.2-1.1,5.4-3.1,7.2-4.3c0.1-0.1,0.1-0.1,0.2-0.2c1-12.2,1.5-24.4,1.6-36.6c-2,0.9-4.2,1.7-6.4,2.1c-3.9,1.1-8,1.2-12,1.5c-8.1,0.2-15.9-0.8-21.7-1.9c-5.7-1.3-9.5-2.2-9.5-2.2s3.9,0.1,9.7,0.3C778.6,307.1,786.3,306.5,793.6,305z M693.2,100.4c0.2,0,0.3,0.1,0.5,0.2c0,0,1.8,1.4,4.3,3.5c1.3,1,2.7,2.3,4.2,3.7c3.8,3.7,10.2,8,10.5,13.7c0.3,6.1-2.6,10.5-8.7,6.7c-5.4-3.4-7.4-10.3-8.9-16.1c-0.6-1.9-1-3.8-1.4-5.4c-0.8-3.1-1.2-5.4-1.2-5.4C692.4,100.7,692.7,100.3,693.2,100.4z M673.3,112.6c0.2,0,0.3,0.1,0.5,0.2c0,0,1.8,1.3,4.3,3.5c1.3,1.1,2.7,2.3,4.2,3.7c3.8,3.7,10.2,8.1,10.5,13.8c0.3,6.1-2.6,10.5-8.7,6.7c-5.4-3.4-7.4-10.2-8.9-16.1c-0.6-1.9-1-3.8-1.4-5.4c-0.8-3.2-1.2-5.4-1.2-5.4C672.5,112.9,672.9,112.5,673.3,112.6z"/></g>
</svg>